<svg 
  width="536" 
  height="120" 
  viewBox="0 0 536 120" 
  fill="none" 
  xmlns="http://www.w3.org/2000/svg"
>
  <path 
    d="M155.76 93V25.8H178.896C182.512 25.8 185.776 26.696 188.688 28.488C191.632 30.28 193.968 32.696 195.696 35.736C197.456 38.776 198.336 42.136 198.336 45.816C198.336 49.56 197.44 52.952 195.648 55.992C193.888 59 191.536 61.4 188.592 63.192C185.648 64.984 182.416 65.88 178.896 65.88H165.744V93H155.76ZM165.744 55.896H177.888C179.808 55.896 181.552 55.416 183.12 54.456C184.72 53.496 185.984 52.216 186.912 50.616C187.872 49.016 188.352 47.208 188.352 45.192C188.352 43.176 187.872 41.368 186.912 39.768C185.984 38.136 184.72 36.856 183.12 35.928C181.552 34.968 179.808 34.488 177.888 34.488H165.744V55.896ZM225.255 94.248C220.839 94.248 216.807 93.112 213.159 90.84C209.543 88.568 206.647 85.528 204.471 81.72C202.327 77.88 201.255 73.64 201.255 69C201.255 65.48 201.879 62.2 203.127 59.16C204.375 56.088 206.087 53.4 208.263 51.096C210.471 48.76 213.031 46.936 215.943 45.624C218.855 44.312 221.959 43.656 225.255 43.656C229.671 43.656 233.687 44.792 237.303 47.064C240.951 49.336 243.847 52.392 245.991 56.232C248.167 60.072 249.255 64.328 249.255 69C249.255 72.488 248.631 75.752 247.383 78.792C246.135 81.832 244.407 84.52 242.199 86.856C240.023 89.16 237.479 90.968 234.567 92.28C231.687 93.592 228.583 94.248 225.255 94.248ZM225.255 84.264C227.911 84.264 230.295 83.56 232.407 82.152C234.519 80.744 236.183 78.888 237.399 76.584C238.647 74.248 239.271 71.72 239.271 69C239.271 66.216 238.631 63.656 237.351 61.32C236.103 58.984 234.423 57.128 232.311 55.752C230.199 54.344 227.847 53.64 225.255 53.64C222.631 53.64 220.247 54.344 218.103 55.752C215.991 57.16 214.311 59.032 213.063 61.368C211.847 63.704 211.239 66.248 211.239 69C211.239 71.848 211.879 74.424 213.159 76.728C214.439 79.032 216.135 80.872 218.247 82.248C220.391 83.592 222.727 84.264 225.255 84.264ZM288.26 79.368L297.188 84.216C295.012 87.256 292.244 89.688 288.884 91.512C285.556 93.336 281.94 94.248 278.036 94.248C273.62 94.248 269.588 93.112 265.94 90.84C262.324 88.568 259.428 85.528 257.252 81.72C255.108 77.88 254.036 73.64 254.036 69C254.036 65.48 254.66 62.2 255.908 59.16C257.156 56.088 258.868 53.4 261.044 51.096C263.252 48.76 265.812 46.936 268.724 45.624C271.636 44.312 274.74 43.656 278.036 43.656C281.94 43.656 285.556 44.568 288.884 46.392C292.244 48.216 295.012 50.664 297.188 53.736L288.26 58.584C286.916 56.984 285.348 55.768 283.556 54.936C281.764 54.072 279.924 53.64 278.036 53.64C275.412 53.64 273.028 54.36 270.884 55.8C268.772 57.208 267.092 59.08 265.844 61.416C264.628 63.72 264.02 66.248 264.02 69C264.02 71.72 264.644 74.248 265.892 76.584C267.14 78.888 268.82 80.744 270.932 82.152C273.076 83.56 275.444 84.264 278.036 84.264C280.02 84.264 281.908 83.816 283.7 82.92C285.492 82.024 287.012 80.84 288.26 79.368ZM346.578 93H335.058L323.25 72.648L315.522 81.864V93H305.586V21H315.522V66.36L333.426 45H346.482L330.114 64.536L346.578 93ZM373.005 94.248C368.589 94.248 364.557 93.112 360.909 90.84C357.293 88.568 354.397 85.528 352.221 81.72C350.077 77.88 349.005 73.64 349.005 69C349.005 65.48 349.629 62.2 350.877 59.16C352.125 56.088 353.837 53.4 356.013 51.096C358.221 48.76 360.781 46.936 363.693 45.624C366.605 44.312 369.709 43.656 373.005 43.656C376.685 43.656 380.061 44.424 383.133 45.96C386.205 47.464 388.829 49.56 391.005 52.248C393.181 54.904 394.781 57.976 395.805 61.464C396.829 64.92 397.133 68.6 396.717 72.504H359.709C360.125 74.712 360.925 76.712 362.109 78.504C363.325 80.264 364.861 81.656 366.717 82.68C368.605 83.704 370.701 84.232 373.005 84.264C375.437 84.264 377.645 83.656 379.629 82.44C381.645 81.224 383.293 79.544 384.573 77.4L394.701 79.752C392.781 84.008 389.885 87.496 386.013 90.216C382.141 92.904 377.805 94.248 373.005 94.248ZM359.373 64.872H386.637C386.317 62.568 385.501 60.488 384.189 58.632C382.909 56.744 381.293 55.256 379.341 54.168C377.421 53.048 375.309 52.488 373.005 52.488C370.733 52.488 368.621 53.032 366.669 54.12C364.749 55.208 363.149 56.696 361.869 58.584C360.621 60.44 359.789 62.536 359.373 64.872ZM430.01 54.984H419.93L419.882 93H409.898L409.946 54.984H402.314V45H409.946L409.898 29.928H419.882L419.93 45H430.01V54.984ZM458.318 94.248C453.902 94.248 449.87 93.112 446.222 90.84C442.606 88.568 439.71 85.528 437.534 81.72C435.39 77.88 434.318 73.64 434.318 69C434.318 65.48 434.942 62.2 436.19 59.16C437.438 56.088 439.15 53.4 441.326 51.096C443.534 48.76 446.094 46.936 449.006 45.624C451.918 44.312 455.022 43.656 458.318 43.656C461.998 43.656 465.374 44.424 468.446 45.96C471.518 47.464 474.142 49.56 476.318 52.248C478.494 54.904 480.094 57.976 481.118 61.464C482.142 64.92 482.446 68.6 482.03 72.504H445.022C445.438 74.712 446.238 76.712 447.422 78.504C448.638 80.264 450.174 81.656 452.03 82.68C453.918 83.704 456.014 84.232 458.318 84.264C460.75 84.264 462.958 83.656 464.942 82.44C466.958 81.224 468.606 79.544 469.886 77.4L480.014 79.752C478.094 84.008 475.198 87.496 471.326 90.216C467.454 92.904 463.118 94.248 458.318 94.248ZM444.686 64.872H471.95C471.63 62.568 470.814 60.488 469.502 58.632C468.222 56.744 466.606 55.256 464.654 54.168C462.734 53.048 460.622 52.488 458.318 52.488C456.046 52.488 453.934 53.032 451.982 54.12C450.062 55.208 448.462 56.696 447.182 58.584C445.934 60.44 445.102 62.536 444.686 64.872ZM484.309 93L501.877 68.904L484.405 44.904H496.741L508.021 60.36L519.349 44.904H531.637L514.213 68.904L531.781 93H519.445L508.021 77.352L496.645 93H484.309Z"
    fill="#D1D1D1"
  />
  <path 
    fill-rule="evenodd" 
    clip-rule="evenodd" 
    d="M0 60C0 26.8629 26.8865 0 60.0236 0C92.3567 0 118.739 25.5753 120 57.5996H115.845H73.3122C71.2438 57.5996 69.2753 58.4891 67.9084 60.0415L51.0397 79.1996H10.204H3.14011C1.10393 73.1715 0 66.7146 0 60ZM10.2904 93.5996C21.0843 109.53 39.3358 120 60.0236 120C89.0512 120 113.282 99.3867 118.846 71.9996H115.845H76.5659L59.6971 91.1577C58.3302 92.71 56.3617 93.5996 54.2933 93.5996H10.2904ZM57.6225 39.5997C57.6225 49.5408 49.5605 57.5997 39.6154 57.5997C29.6704 57.5997 21.6084 49.5408 21.6084 39.5997C21.6084 29.6586 29.6704 21.5997 39.6154 21.5997C49.5605 21.5997 57.6225 29.6586 57.6225 39.5997Z" 
    fill="#DC0A2D"
  />
</svg>
