<svg width="100%" height="100%" viewBox="0 0 300 300" fill="#DC0A2D" xmlns="http://www.w3.org/2000/svg">
  <path fill-rule="evenodd" clip-rule="evenodd"
    d="M0 150C0 67.1573 67.2162 0 150.059 0C230.892 0 296.848 63.9388 300 144H289.614H183.281C178.11 144 173.189 146.224 169.772 150.105L127.6 198H25.5107H7.85063C2.75996 182.93 0 166.787 0 150ZM25.7267 234C52.7117 273.825 98.34 300 150.059 300C222.628 300 283.205 248.467 297.115 180H289.614H191.415L149.243 227.895C145.826 231.776 140.905 234 135.734 234H25.7267ZM144.055 99.0002C144.055 123.853 123.9 144 99.0378 144C74.1752 144 54.0201 123.853 54.0201 99.0002C54.0201 74.1474 74.1752 54.0002 99.0378 54.0002C123.9 54.0002 144.055 74.1474 144.055 99.0002Z" />
</svg>