<svg 
  width="14"
  height="14"
  viewBox="0 0 14 14"
  fill="none"
  xmlns="http://www.w3.org/2000/svg"
>
  <path 
    fill-rule="evenodd"
    clip-rule="evenodd"
    d="M10.607 9.56135C12.4172 7.23648 12.2537 3.87294 10.1165 1.73571C7.80218 -0.57857 4.04999 -0.57857 1.73571 1.73571C-0.57857 4.04999 -0.57857 7.80218 1.73571 10.1165C3.87294 12.2537 7.23648 12.4172 9.56135 10.607C9.57138 10.6183 9.58182 10.6294 9.59266 10.6403L12.7354 13.783C13.0247 14.0723 13.4938 14.0723 13.783 13.783C14.0723 13.4938 14.0723 13.0247 13.783 12.7354L10.6403 9.59266C10.6294 9.58182 10.6183 9.57138 10.607 9.56135ZM9.06886 2.7833C10.8046 4.51901 10.8046 7.33316 9.06886 9.06886C7.33316 10.8046 4.51901 10.8046 2.7833 9.06886C1.04759 7.33316 1.04759 4.51901 2.7833 2.7833C4.51901 1.04759 7.33316 1.04759 9.06886 2.7833Z"
    fill="#3F3F3F"
  />
</svg>
